<svg width="174" height="55" viewBox="0 0 174 55" fill="none" xmlns="http://www.w3.org/2000/svg">
<path d="M7.59969 27.0707C7.59969 23.5351 8.94953 20.2105 11.4015 17.7097C13.8525 15.2099 17.1122 13.8322 20.5798 13.8322H33.5122L18.656 5.08598C18.4611 4.97134 18.2214 4.97134 18.0264 5.08598L0.315327 15.5153C0.120362 15.6299 0 15.842 0 16.0712V36.9298C0 37.1591 0.120362 37.3712 0.315327 37.4858L7.59969 41.7752V27.0707Z" fill="black"/>
<path d="M20.5786 18.9686C16.1979 18.9686 12.6348 22.6037 12.6348 27.0706V27.7554H26.2297V32.8909H12.6348V44.7396L18.0262 47.914C18.2211 48.0286 18.4609 48.0286 18.6558 47.914L36.3669 37.4847C36.5619 37.3701 36.6822 37.158 36.6822 36.9287V20.8567L42 18.9686H20.5786Z" fill="#BB9CC0"/>
<path d="M52.1719 7.25H56.1406L61.9844 23.9531L67.8281 7.25H71.7969L63.5781 30H60.3906L52.1719 7.25ZM50.0312 7.25H53.9844L54.7031 23.5312V30H50.0312V7.25ZM69.9844 7.25H73.9531V30H69.2656V23.5312L69.9844 7.25ZM87.5462 26.1875V18.6562C87.5462 18.1146 87.4577 17.651 87.2806 17.2656C87.1035 16.8698 86.8275 16.5625 86.4525 16.3438C86.0879 16.125 85.614 16.0156 85.0306 16.0156C84.5306 16.0156 84.0983 16.1042 83.7337 16.2812C83.3692 16.4479 83.0879 16.6927 82.89 17.0156C82.6921 17.3281 82.5931 17.6979 82.5931 18.125H78.0931C78.0931 17.4062 78.2598 16.724 78.5931 16.0781C78.9265 15.4323 79.4108 14.8646 80.0462 14.375C80.6817 13.875 81.4369 13.4844 82.3119 13.2031C83.1973 12.9219 84.1869 12.7812 85.2806 12.7812C86.5931 12.7812 87.7598 13 88.7806 13.4375C89.8015 13.875 90.6035 14.5312 91.1869 15.4062C91.7806 16.2812 92.0775 17.375 92.0775 18.6875V25.9219C92.0775 26.849 92.1348 27.6094 92.2494 28.2031C92.364 28.7865 92.5306 29.2969 92.7494 29.7344V30H88.2025C87.9837 29.5417 87.8171 28.9688 87.7025 28.2812C87.5983 27.5833 87.5462 26.8854 87.5462 26.1875ZM88.14 19.7031L88.1712 22.25H85.6556C85.0619 22.25 84.5462 22.3177 84.1087 22.4531C83.6712 22.5885 83.3119 22.7812 83.0306 23.0312C82.7494 23.2708 82.541 23.5521 82.4056 23.875C82.2806 24.1979 82.2181 24.5521 82.2181 24.9375C82.2181 25.3229 82.3067 25.6719 82.4837 25.9844C82.6608 26.2865 82.916 26.526 83.2494 26.7031C83.5827 26.8698 83.9733 26.9531 84.4212 26.9531C85.0983 26.9531 85.6869 26.8177 86.1869 26.5469C86.6869 26.276 87.0723 25.9427 87.3431 25.5469C87.6244 25.151 87.7702 24.776 87.7806 24.4219L88.9681 26.3281C88.8015 26.7552 88.5723 27.1979 88.2806 27.6562C87.9994 28.1146 87.64 28.5469 87.2025 28.9531C86.765 29.349 86.239 29.6771 85.6244 29.9375C85.0098 30.1875 84.2806 30.3125 83.4369 30.3125C82.364 30.3125 81.39 30.099 80.515 29.6719C79.6504 29.2344 78.9629 28.6354 78.4525 27.875C77.9525 27.1042 77.7025 26.2292 77.7025 25.25C77.7025 24.3646 77.8692 23.5781 78.2025 22.8906C78.5358 22.2031 79.0254 21.625 79.6712 21.1562C80.3275 20.6771 81.1452 20.3177 82.1244 20.0781C83.1035 19.8281 84.239 19.7031 85.5306 19.7031H88.14ZM106.889 13.0938H110.967V29.4375C110.967 30.9792 110.624 32.2865 109.936 33.3594C109.259 34.4427 108.311 35.2604 107.092 35.8125C105.874 36.375 104.457 36.6562 102.842 36.6562C102.134 36.6562 101.384 36.5625 100.592 36.375C99.8112 36.1875 99.0612 35.8958 98.3425 35.5C97.6342 35.1042 97.0404 34.6042 96.5612 34L98.5456 31.3438C99.0665 31.9479 99.6706 32.4167 100.358 32.75C101.046 33.0938 101.806 33.2656 102.639 33.2656C103.452 33.2656 104.139 33.1146 104.702 32.8125C105.264 32.5208 105.697 32.0885 105.999 31.5156C106.301 30.9531 106.452 30.2708 106.452 29.4688V17L106.889 13.0938ZM95.5144 21.75V21.4219C95.5144 20.1302 95.6706 18.9583 95.9831 17.9062C96.306 16.8438 96.7592 15.9323 97.3425 15.1719C97.9362 14.4115 98.655 13.8229 99.4987 13.4062C100.342 12.9896 101.296 12.7812 102.358 12.7812C103.483 12.7812 104.426 12.9896 105.186 13.4062C105.947 13.8229 106.572 14.4167 107.061 15.1875C107.551 15.9479 107.931 16.849 108.202 17.8906C108.483 18.9219 108.702 20.0521 108.858 21.2812V22C108.702 23.1771 108.467 24.2708 108.155 25.2812C107.842 26.2917 107.431 27.1771 106.921 27.9375C106.41 28.6875 105.775 29.2708 105.014 29.6875C104.264 30.1042 103.369 30.3125 102.327 30.3125C101.285 30.3125 100.342 30.099 99.4987 29.6719C98.6654 29.2448 97.9519 28.6458 97.3581 27.875C96.7644 27.1042 96.306 26.1979 95.9831 25.1562C95.6706 24.1146 95.5144 22.9792 95.5144 21.75ZM100.014 21.4219V21.75C100.014 22.4479 100.082 23.099 100.217 23.7031C100.353 24.3073 100.561 24.8438 100.842 25.3125C101.134 25.7708 101.494 26.1302 101.921 26.3906C102.358 26.6406 102.874 26.7656 103.467 26.7656C104.29 26.7656 104.962 26.5938 105.483 26.25C106.004 25.8958 106.395 25.4115 106.655 24.7969C106.915 24.1823 107.066 23.474 107.108 22.6719V20.625C107.087 19.9688 106.999 19.3802 106.842 18.8594C106.686 18.3281 106.467 17.875 106.186 17.5C105.905 17.125 105.54 16.8333 105.092 16.625C104.645 16.4167 104.113 16.3125 103.499 16.3125C102.905 16.3125 102.389 16.4479 101.952 16.7188C101.525 16.9792 101.165 17.3385 100.874 17.7969C100.592 18.2552 100.379 18.7969 100.233 19.4219C100.087 20.0365 100.014 20.7031 100.014 21.4219ZM146.482 26.4844V30H133.638V26.4844H146.482ZM146.232 15.6875L135.451 30H132.435V27.3281L143.169 13.0938H146.232V15.6875ZM144.638 13.0938V16.625H132.685V13.0938H144.638ZM154.7 13.0938V30H150.184V13.0938H154.7ZM149.903 8.6875C149.903 8.03125 150.132 7.48958 150.591 7.0625C151.049 6.63542 151.664 6.42188 152.434 6.42188C153.195 6.42188 153.804 6.63542 154.262 7.0625C154.731 7.48958 154.966 8.03125 154.966 8.6875C154.966 9.34375 154.731 9.88542 154.262 10.3125C153.804 10.7396 153.195 10.9531 152.434 10.9531C151.664 10.9531 151.049 10.7396 150.591 10.3125C150.132 9.88542 149.903 9.34375 149.903 8.6875ZM162.684 13.0938L165.481 18.2344L168.356 13.0938H173.152L168.371 21.3594L173.371 30H168.559L165.512 24.5625L162.465 30H157.652L162.652 21.3594L157.871 13.0938H162.684Z" fill="black"/>
<path d="M122.889 30.3125C121.576 30.3125 120.399 30.1042 119.357 29.6875C118.316 29.2604 117.43 28.6719 116.701 27.9219C115.982 27.1719 115.43 26.3021 115.045 25.3125C114.66 24.3125 114.467 23.25 114.467 22.125V21.5C114.467 20.2188 114.649 19.0469 115.014 17.9844C115.378 16.9219 115.899 16 116.576 15.2188C117.264 14.4375 118.097 13.8385 119.076 13.4219C120.055 12.9948 121.16 12.7812 122.389 12.7812C123.587 12.7812 124.649 12.9792 125.576 13.375C126.503 13.7708 127.279 14.3333 127.904 15.0625C128.54 15.7917 129.019 16.6667 129.342 17.6875C129.665 18.6979 129.826 19.8229 129.826 21.0625V22.9375H116.389V19.9375H125.404V19.5938C125.404 18.9688 125.29 18.4115 125.061 17.9219C124.842 17.4219 124.509 17.026 124.061 16.7344C123.613 16.4427 123.04 16.2969 122.342 16.2969C121.748 16.2969 121.238 16.4271 120.811 16.6875C120.384 16.9479 120.035 17.3125 119.764 17.7812C119.503 18.25 119.305 18.8021 119.17 19.4375C119.045 20.0625 118.982 20.75 118.982 21.5V22.125C118.982 22.8021 119.076 23.4271 119.264 24C119.462 24.5729 119.738 25.0677 120.092 25.4844C120.456 25.901 120.894 26.224 121.404 26.4531C121.925 26.6823 122.514 26.7969 123.17 26.7969C123.982 26.7969 124.738 26.6406 125.436 26.3281C126.144 26.0052 126.753 25.5208 127.264 24.875L129.451 27.25C129.097 27.7604 128.613 28.25 127.998 28.7188C127.394 29.1875 126.665 29.5729 125.811 29.875C124.956 30.1667 123.982 30.3125 122.889 30.3125Z" fill="#BB9CC0"/>
<path d="M52.1426 43.4688V52H51.0293V43.4688H52.1426ZM54.8848 43.4688V44.3945H48.293V43.4688H54.8848ZM57.825 46.6562V52H56.741V45.6602H57.7957L57.825 46.6562ZM59.8055 45.625L59.7996 46.6328C59.7098 46.6133 59.6238 46.6016 59.5418 46.5977C59.4637 46.5898 59.3738 46.5859 59.2723 46.5859C59.0223 46.5859 58.8016 46.625 58.6102 46.7031C58.4187 46.7812 58.2566 46.8906 58.1238 47.0312C57.991 47.1719 57.8855 47.3398 57.8074 47.5352C57.7332 47.7266 57.6844 47.9375 57.6609 48.168L57.3562 48.3438C57.3562 47.9609 57.3934 47.6016 57.4676 47.2656C57.5457 46.9297 57.6648 46.6328 57.825 46.375C57.9852 46.1133 58.1883 45.9102 58.4344 45.7656C58.6844 45.6172 58.9812 45.543 59.325 45.543C59.4031 45.543 59.493 45.5527 59.5945 45.5723C59.6961 45.5879 59.7664 45.6055 59.8055 45.625ZM65.8863 50.5352V45.6602H66.9762V52H65.9391L65.8863 50.5352ZM66.0914 49.1992L66.5426 49.1875C66.5426 49.6094 66.4977 50 66.4078 50.3594C66.3219 50.7148 66.1812 51.0234 65.9859 51.2852C65.7906 51.5469 65.5348 51.752 65.2184 51.9004C64.902 52.0449 64.5172 52.1172 64.0641 52.1172C63.7555 52.1172 63.4723 52.0723 63.2145 51.9824C62.9605 51.8926 62.7418 51.7539 62.5582 51.5664C62.3746 51.3789 62.232 51.1348 62.1305 50.834C62.0328 50.5332 61.984 50.1719 61.984 49.75V45.6602H63.068V49.7617C63.068 50.0469 63.0992 50.2832 63.1617 50.4707C63.2281 50.6543 63.316 50.8008 63.4254 50.9102C63.5387 51.0156 63.6637 51.0898 63.8004 51.1328C63.941 51.1758 64.0855 51.1973 64.234 51.1973C64.6949 51.1973 65.0602 51.1094 65.3297 50.9336C65.5992 50.7539 65.7926 50.5137 65.9098 50.2129C66.0309 49.9082 66.0914 49.5703 66.0914 49.1992ZM73.5199 50.3184C73.5199 50.1621 73.4848 50.0176 73.4145 49.8848C73.348 49.748 73.2094 49.625 72.9984 49.5156C72.7914 49.4023 72.4789 49.3047 72.0609 49.2227C71.7094 49.1484 71.391 49.0605 71.1059 48.959C70.8246 48.8574 70.5844 48.7344 70.3852 48.5898C70.1898 48.4453 70.0395 48.2754 69.934 48.0801C69.8285 47.8848 69.7758 47.6562 69.7758 47.3945C69.7758 47.1445 69.8305 46.9082 69.9398 46.6855C70.0531 46.4629 70.2113 46.2656 70.4145 46.0938C70.6215 45.9219 70.8695 45.7871 71.1586 45.6895C71.4477 45.5918 71.7699 45.543 72.1254 45.543C72.6332 45.543 73.0668 45.6328 73.4262 45.8125C73.7855 45.9922 74.0609 46.2324 74.2523 46.5332C74.4438 46.8301 74.5395 47.1602 74.5395 47.5234H73.4555C73.4555 47.3477 73.4027 47.1777 73.2973 47.0137C73.1957 46.8457 73.0453 46.707 72.8461 46.5977C72.6508 46.4883 72.4105 46.4336 72.1254 46.4336C71.8246 46.4336 71.5805 46.4805 71.393 46.5742C71.2094 46.6641 71.0746 46.7793 70.9887 46.9199C70.9066 47.0605 70.8656 47.209 70.8656 47.3652C70.8656 47.4824 70.8852 47.5879 70.9242 47.6816C70.9672 47.7715 71.0414 47.8555 71.1469 47.9336C71.2523 48.0078 71.4008 48.0781 71.5922 48.1445C71.7836 48.2109 72.0277 48.2773 72.3246 48.3438C72.8441 48.4609 73.2719 48.6016 73.6078 48.7656C73.9438 48.9297 74.1938 49.1309 74.3578 49.3691C74.5219 49.6074 74.6039 49.8965 74.6039 50.2363C74.6039 50.5137 74.5453 50.7676 74.4281 50.998C74.3148 51.2285 74.1488 51.4277 73.9301 51.5957C73.7152 51.7598 73.4574 51.8887 73.1566 51.9824C72.8598 52.0723 72.5258 52.1172 72.1547 52.1172C71.5961 52.1172 71.1234 52.0176 70.7367 51.8184C70.35 51.6191 70.057 51.3613 69.8578 51.0449C69.6586 50.7285 69.559 50.3945 69.559 50.043H70.6488C70.6645 50.3398 70.7504 50.5762 70.9066 50.752C71.0629 50.9238 71.2543 51.0469 71.4809 51.1211C71.7074 51.1914 71.932 51.2266 72.1547 51.2266C72.4516 51.2266 72.6996 51.1875 72.8988 51.1094C73.102 51.0312 73.2563 50.9238 73.3617 50.7871C73.4672 50.6504 73.5199 50.4941 73.5199 50.3184ZM79.882 45.6602V46.4922H76.4543V45.6602H79.882ZM77.6145 44.1191H78.6984V50.4297C78.6984 50.6445 78.7316 50.8066 78.798 50.916C78.8645 51.0254 78.9504 51.0977 79.0559 51.1328C79.1613 51.168 79.2746 51.1855 79.3957 51.1855C79.4855 51.1855 79.5793 51.1777 79.677 51.1621C79.7785 51.1426 79.8547 51.127 79.9055 51.1152L79.9113 52C79.8254 52.0273 79.7121 52.0527 79.5715 52.0762C79.4348 52.1035 79.2687 52.1172 79.0734 52.1172C78.8078 52.1172 78.5637 52.0645 78.341 51.959C78.1184 51.8535 77.9406 51.6777 77.8078 51.4316C77.6789 51.1816 77.6145 50.8457 77.6145 50.4238V44.1191ZM84.9844 52.1172C84.543 52.1172 84.1426 52.043 83.7832 51.8945C83.4277 51.7422 83.1211 51.5293 82.8633 51.2559C82.6094 50.9824 82.4141 50.6582 82.2773 50.2832C82.1406 49.9082 82.0723 49.498 82.0723 49.0527V48.8066C82.0723 48.291 82.1484 47.832 82.3008 47.4297C82.4531 47.0234 82.6602 46.6797 82.9219 46.3984C83.1836 46.1172 83.4805 45.9043 83.8125 45.7598C84.1445 45.6152 84.4883 45.543 84.8438 45.543C85.2969 45.543 85.6875 45.6211 86.0156 45.7773C86.3477 45.9336 86.6191 46.1523 86.8301 46.4336C87.041 46.7109 87.1973 47.0391 87.2988 47.418C87.4004 47.793 87.4512 48.2031 87.4512 48.6484V49.1348H82.7168V48.25H86.3672V48.168C86.3516 47.8867 86.293 47.6133 86.1914 47.3477C86.0938 47.082 85.9375 46.8633 85.7227 46.6914C85.5078 46.5195 85.2148 46.4336 84.8438 46.4336C84.5977 46.4336 84.3711 46.4863 84.1641 46.5918C83.957 46.6934 83.7793 46.8457 83.6309 47.0488C83.4824 47.252 83.3672 47.5 83.2852 47.793C83.2031 48.0859 83.1621 48.4238 83.1621 48.8066V49.0527C83.1621 49.3535 83.2031 49.6367 83.2852 49.9023C83.3711 50.1641 83.4941 50.3945 83.6543 50.5938C83.8184 50.793 84.0156 50.9492 84.2461 51.0625C84.4805 51.1758 84.7461 51.2324 85.043 51.2324C85.4258 51.2324 85.75 51.1543 86.0156 50.998C86.2812 50.8418 86.5137 50.6328 86.7129 50.3711L87.3691 50.8926C87.2324 51.0996 87.0586 51.2969 86.8477 51.4844C86.6367 51.6719 86.377 51.8242 86.0684 51.9414C85.7637 52.0586 85.4023 52.1172 84.9844 52.1172ZM93.9129 50.7695V43H95.0027V52H94.0066L93.9129 50.7695ZM89.6473 48.9004V48.7773C89.6473 48.293 89.7059 47.8535 89.823 47.459C89.9441 47.0605 90.1141 46.7188 90.3328 46.4336C90.5555 46.1484 90.8191 45.9297 91.1238 45.7773C91.4324 45.6211 91.7762 45.543 92.1551 45.543C92.5535 45.543 92.9012 45.6133 93.198 45.7539C93.4988 45.8906 93.7527 46.0918 93.9598 46.3574C94.1707 46.6191 94.3367 46.9355 94.4578 47.3066C94.5789 47.6777 94.6629 48.0977 94.7098 48.5664V49.1055C94.6668 49.5703 94.5828 49.9883 94.4578 50.3594C94.3367 50.7305 94.1707 51.0469 93.9598 51.3086C93.7527 51.5703 93.4988 51.7715 93.198 51.9121C92.8973 52.0488 92.5457 52.1172 92.1434 52.1172C91.7723 52.1172 91.4324 52.0371 91.1238 51.877C90.8191 51.7168 90.5555 51.4922 90.3328 51.2031C90.1141 50.9141 89.9441 50.5742 89.823 50.1836C89.7059 49.7891 89.6473 49.3613 89.6473 48.9004ZM90.7371 48.7773V48.9004C90.7371 49.2168 90.7684 49.5137 90.8309 49.791C90.8973 50.0684 90.9988 50.3125 91.1355 50.5234C91.2723 50.7344 91.4461 50.9004 91.657 51.0215C91.868 51.1387 92.1199 51.1973 92.4129 51.1973C92.7723 51.1973 93.0672 51.1211 93.2977 50.9688C93.532 50.8164 93.7195 50.6152 93.8602 50.3652C94.0008 50.1152 94.1102 49.8438 94.1883 49.5508V48.1387C94.1414 47.9238 94.073 47.7168 93.9832 47.5176C93.8973 47.3145 93.784 47.1348 93.6434 46.9785C93.5066 46.8184 93.3367 46.6914 93.1336 46.5977C92.9344 46.5039 92.698 46.457 92.4246 46.457C92.1277 46.457 91.8719 46.5195 91.657 46.6445C91.4461 46.7656 91.2723 46.9336 91.1355 47.1484C90.9988 47.3594 90.8973 47.6055 90.8309 47.8867C90.7684 48.1641 90.7371 48.4609 90.7371 48.7773ZM108.793 43.4688V52H107.657L103.362 45.4199V52H102.231V43.4688H103.362L107.674 50.0664V43.4688H108.793ZM114.464 52.1172C114.023 52.1172 113.622 52.043 113.263 51.8945C112.907 51.7422 112.601 51.5293 112.343 51.2559C112.089 50.9824 111.894 50.6582 111.757 50.2832C111.62 49.9082 111.552 49.498 111.552 49.0527V48.8066C111.552 48.291 111.628 47.832 111.78 47.4297C111.933 47.0234 112.14 46.6797 112.402 46.3984C112.663 46.1172 112.96 45.9043 113.292 45.7598C113.624 45.6152 113.968 45.543 114.323 45.543C114.777 45.543 115.167 45.6211 115.495 45.7773C115.827 45.9336 116.099 46.1523 116.31 46.4336C116.521 46.7109 116.677 47.0391 116.779 47.418C116.88 47.793 116.931 48.2031 116.931 48.6484V49.1348H112.196V48.25H115.847V48.168C115.831 47.8867 115.773 47.6133 115.671 47.3477C115.573 47.082 115.417 46.8633 115.202 46.6914C114.987 46.5195 114.695 46.4336 114.323 46.4336C114.077 46.4336 113.851 46.4863 113.644 46.5918C113.437 46.6934 113.259 46.8457 113.111 47.0488C112.962 47.252 112.847 47.5 112.765 47.793C112.683 48.0859 112.642 48.4238 112.642 48.8066V49.0527C112.642 49.3535 112.683 49.6367 112.765 49.9023C112.851 50.1641 112.974 50.3945 113.134 50.5938C113.298 50.793 113.495 50.9492 113.726 51.0625C113.96 51.1758 114.226 51.2324 114.523 51.2324C114.905 51.2324 115.23 51.1543 115.495 50.998C115.761 50.8418 115.993 50.6328 116.193 50.3711L116.849 50.8926C116.712 51.0996 116.538 51.2969 116.327 51.4844C116.116 51.6719 115.857 51.8242 115.548 51.9414C115.243 52.0586 114.882 52.1172 114.464 52.1172ZM121.002 50.875L122.631 45.6602H123.346L123.205 46.6973L121.547 52H120.85L121.002 50.875ZM119.906 45.6602L121.295 50.9336L121.395 52H120.662L118.822 45.6602H119.906ZM124.904 50.8926L126.229 45.6602H127.307L125.467 52H124.74L124.904 50.8926ZM123.504 45.6602L125.098 50.7871L125.279 52H124.588L122.883 46.6855L122.742 45.6602H123.504ZM133.311 50.3184C133.311 50.1621 133.276 50.0176 133.206 49.8848C133.139 49.748 133.001 49.625 132.79 49.5156C132.583 49.4023 132.27 49.3047 131.852 49.2227C131.501 49.1484 131.182 49.0605 130.897 48.959C130.616 48.8574 130.376 48.7344 130.177 48.5898C129.981 48.4453 129.831 48.2754 129.725 48.0801C129.62 47.8848 129.567 47.6562 129.567 47.3945C129.567 47.1445 129.622 46.9082 129.731 46.6855C129.845 46.4629 130.003 46.2656 130.206 46.0938C130.413 45.9219 130.661 45.7871 130.95 45.6895C131.239 45.5918 131.561 45.543 131.917 45.543C132.425 45.543 132.858 45.6328 133.218 45.8125C133.577 45.9922 133.852 46.2324 134.044 46.5332C134.235 46.8301 134.331 47.1602 134.331 47.5234H133.247C133.247 47.3477 133.194 47.1777 133.089 47.0137C132.987 46.8457 132.837 46.707 132.637 46.5977C132.442 46.4883 132.202 46.4336 131.917 46.4336C131.616 46.4336 131.372 46.4805 131.184 46.5742C131.001 46.6641 130.866 46.7793 130.78 46.9199C130.698 47.0605 130.657 47.209 130.657 47.3652C130.657 47.4824 130.677 47.5879 130.716 47.6816C130.759 47.7715 130.833 47.8555 130.938 47.9336C131.044 48.0078 131.192 48.0781 131.384 48.1445C131.575 48.2109 131.819 48.2773 132.116 48.3438C132.636 48.4609 133.063 48.6016 133.399 48.7656C133.735 48.9297 133.985 49.1309 134.149 49.3691C134.313 49.6074 134.395 49.8965 134.395 50.2363C134.395 50.5137 134.337 50.7676 134.22 50.998C134.106 51.2285 133.94 51.4277 133.721 51.5957C133.507 51.7598 133.249 51.8887 132.948 51.9824C132.651 52.0723 132.317 52.1172 131.946 52.1172C131.387 52.1172 130.915 52.0176 130.528 51.8184C130.141 51.6191 129.848 51.3613 129.649 51.0449C129.45 50.7285 129.35 50.3945 129.35 50.043H130.44C130.456 50.3398 130.542 50.5762 130.698 50.752C130.854 50.9238 131.046 51.0469 131.272 51.1211C131.499 51.1914 131.723 51.2266 131.946 51.2266C132.243 51.2266 132.491 51.1875 132.69 51.1094C132.893 51.0312 133.048 50.9238 133.153 50.7871C133.259 50.6504 133.311 50.4941 133.311 50.3184ZM145.907 49.8438C145.907 49.6445 145.875 49.4688 145.813 49.3164C145.754 49.1602 145.649 49.0195 145.496 48.8945C145.348 48.7695 145.141 48.6504 144.875 48.5371C144.614 48.4238 144.282 48.3086 143.879 48.1914C143.457 48.0664 143.077 47.9277 142.737 47.7754C142.397 47.6191 142.106 47.4414 141.864 47.2422C141.621 47.043 141.436 46.8145 141.307 46.5566C141.178 46.2988 141.114 46.0039 141.114 45.6719C141.114 45.3398 141.182 45.0332 141.319 44.752C141.455 44.4707 141.651 44.2266 141.905 44.0195C142.162 43.8086 142.469 43.6445 142.825 43.5273C143.18 43.4102 143.577 43.3516 144.014 43.3516C144.655 43.3516 145.198 43.4746 145.643 43.7207C146.092 43.9629 146.434 44.2812 146.668 44.6758C146.903 45.0664 147.02 45.4844 147.02 45.9297H145.895C145.895 45.6094 145.827 45.3262 145.69 45.0801C145.553 44.8301 145.346 44.6348 145.069 44.4941C144.791 44.3496 144.44 44.2773 144.014 44.2773C143.612 44.2773 143.28 44.3379 143.018 44.459C142.756 44.5801 142.561 44.7441 142.432 44.9512C142.307 45.1582 142.245 45.3945 142.245 45.6602C142.245 45.8398 142.282 46.0039 142.356 46.1523C142.434 46.2969 142.553 46.4316 142.713 46.5566C142.877 46.6816 143.084 46.7969 143.334 46.9023C143.588 47.0078 143.891 47.1094 144.243 47.207C144.727 47.3438 145.145 47.4961 145.496 47.6641C145.848 47.832 146.137 48.0215 146.364 48.2324C146.594 48.4395 146.764 48.6758 146.873 48.9414C146.987 49.2031 147.043 49.5 147.043 49.832C147.043 50.1797 146.973 50.4941 146.832 50.7754C146.692 51.0566 146.491 51.2969 146.229 51.4961C145.967 51.6953 145.653 51.8496 145.286 51.959C144.922 52.0645 144.516 52.1172 144.067 52.1172C143.672 52.1172 143.284 52.0625 142.901 51.9531C142.522 51.8438 142.176 51.6797 141.864 51.4609C141.555 51.2422 141.307 50.9727 141.12 50.6523C140.936 50.3281 140.844 49.9531 140.844 49.5273H141.969C141.969 49.8203 142.026 50.0723 142.139 50.2832C142.252 50.4902 142.407 50.6621 142.602 50.7988C142.801 50.9355 143.026 51.0371 143.276 51.1035C143.53 51.166 143.793 51.1973 144.067 51.1973C144.461 51.1973 144.795 51.1426 145.069 51.0332C145.342 50.9238 145.549 50.7676 145.69 50.5645C145.834 50.3613 145.907 50.1211 145.907 49.8438ZM150.698 45.6602V52H149.609V45.6602H150.698ZM149.527 43.9785C149.527 43.8027 149.579 43.6543 149.685 43.5332C149.794 43.4121 149.954 43.3516 150.165 43.3516C150.372 43.3516 150.53 43.4121 150.64 43.5332C150.753 43.6543 150.81 43.8027 150.81 43.9785C150.81 44.1465 150.753 44.291 150.64 44.4121C150.53 44.5293 150.372 44.5879 150.165 44.5879C149.954 44.5879 149.794 44.5293 149.685 44.4121C149.579 44.291 149.527 44.1465 149.527 43.9785ZM156.293 45.6602V46.4922H152.865V45.6602H156.293ZM154.025 44.1191H155.109V50.4297C155.109 50.6445 155.143 50.8066 155.209 50.916C155.275 51.0254 155.361 51.0977 155.467 51.1328C155.572 51.168 155.686 51.1855 155.807 51.1855C155.896 51.1855 155.99 51.1777 156.088 51.1621C156.189 51.1426 156.266 51.127 156.316 51.1152L156.322 52C156.236 52.0273 156.123 52.0527 155.982 52.0762C155.846 52.1035 155.68 52.1172 155.484 52.1172C155.219 52.1172 154.975 52.0645 154.752 51.959C154.529 51.8535 154.352 51.6777 154.219 51.4316C154.09 51.1816 154.025 50.8457 154.025 50.4238V44.1191ZM161.395 52.1172C160.954 52.1172 160.554 52.043 160.194 51.8945C159.839 51.7422 159.532 51.5293 159.274 51.2559C159.02 50.9824 158.825 50.6582 158.688 50.2832C158.552 49.9082 158.483 49.498 158.483 49.0527V48.8066C158.483 48.291 158.559 47.832 158.712 47.4297C158.864 47.0234 159.071 46.6797 159.333 46.3984C159.595 46.1172 159.891 45.9043 160.223 45.7598C160.555 45.6152 160.899 45.543 161.255 45.543C161.708 45.543 162.098 45.6211 162.427 45.7773C162.759 45.9336 163.03 46.1523 163.241 46.4336C163.452 46.7109 163.608 47.0391 163.71 47.418C163.811 47.793 163.862 48.2031 163.862 48.6484V49.1348H159.128V48.25H162.778V48.168C162.762 47.8867 162.704 47.6133 162.602 47.3477C162.505 47.082 162.348 46.8633 162.134 46.6914C161.919 46.5195 161.626 46.4336 161.255 46.4336C161.009 46.4336 160.782 46.4863 160.575 46.5918C160.368 46.6934 160.19 46.8457 160.042 47.0488C159.893 47.252 159.778 47.5 159.696 47.793C159.614 48.0859 159.573 48.4238 159.573 48.8066V49.0527C159.573 49.3535 159.614 49.6367 159.696 49.9023C159.782 50.1641 159.905 50.3945 160.065 50.5938C160.229 50.793 160.427 50.9492 160.657 51.0625C160.891 51.1758 161.157 51.2324 161.454 51.2324C161.837 51.2324 162.161 51.1543 162.427 50.998C162.692 50.8418 162.925 50.6328 163.124 50.3711L163.78 50.8926C163.643 51.0996 163.47 51.2969 163.259 51.4844C163.048 51.6719 162.788 51.8242 162.479 51.9414C162.175 52.0586 161.813 52.1172 161.395 52.1172Z" fill="#65687D" fill-opacity="0.61"/>
</svg>
